/* XPM */
static char *_43a92525bb74d6898792dd0682692a4ct7ePuJaVmkaJ8sO[] = {
/* columns rows colors chars-per-pixel */
"64 64 6 1 ",
"  c black",
". c #1B112C",
"X c #2A143D",
"o c #47195D",
"O c #C8658C",
"+ c #DD8D9F",
/* pixels */
"            ooooXXXXoooo....oooo    XXXX....XXXX    oooo    ....",
"            ooooXXXXoooo....oooo    XXXX....XXXX    oooo    ....",
"            ooooXXXXoooo....oooo    XXXX....XXXX    oooo    ....",
"            ooooXXXXoooo....oooo    XXXX....XXXX    oooo    ....",
"....    XXXX....oooo....ooooXXXXXXXXoooooooo....XXXX....XXXXoooo",
"....    XXXX....oooo....ooooXXXXXXXXoooooooo....XXXX....XXXXoooo",
"....    XXXX....oooo....ooooXXXXXXXXoooooooo....XXXX....XXXXoooo",
"....    XXXX....oooo....ooooXXXXXXXXoooooooo....XXXX....XXXXoooo",
"    XXXX........................OOOO....................oooo....",
"    XXXX........................OOOO....................oooo....",
"    XXXX........................OOOO....................oooo....",
"    XXXX........................OOOO....................oooo....",
"....        oooo............OOOO++++OOOO................XXXX....",
"....        oooo............OOOO++++OOOO................XXXX....",
"....        oooo............OOOO++++OOOO................XXXX....",
"....        oooo............OOOO++++OOOO................XXXX....",
"    XXXXXXXX............OOOO++++++++++++OOOO........ooooooooXXXX",
"    XXXXXXXX............OOOO++++++++++++OOOO........ooooooooXXXX",
"    XXXXXXXX............OOOO++++++++++++OOOO........ooooooooXXXX",
"    XXXXXXXX............OOOO++++++++++++OOOO........ooooooooXXXX",
"oooo    ............OOOO++++++++OOOO++++++++OOOO....XXXX....XXXX",
"oooo    ............OOOO++++++++OOOO++++++++OOOO....XXXX....XXXX",
"oooo    ............OOOO++++++++OOOO++++++++OOOO....XXXX....XXXX",
"oooo    ............OOOO++++++++OOOO++++++++OOOO....XXXX....XXXX",
"        oooo....OOOO++++++++OOOO++++OOOO++++++++OOOO....oooo....",
"        oooo....OOOO++++++++OOOO++++OOOO++++++++OOOO....oooo....",
"        oooo....OOOO++++++++OOOO++++OOOO++++++++OOOO....oooo....",
"        oooo....OOOO++++++++OOOO++++OOOO++++++++OOOO....oooo....",
"    XXXXooooOOOO++++++++OOOO++++++++++++OOOO++++++++OOOOXXXXoooo",
"    XXXXooooOOOO++++++++OOOO++++++++++++OOOO++++++++OOOOXXXXoooo",
"    XXXXooooOOOO++++++++OOOO++++++++++++OOOO++++++++OOOOXXXXoooo",
"    XXXXooooOOOO++++++++OOOO++++++++++++OOOO++++++++OOOOXXXXoooo",
"    ............OOOO++++++++OOOO++++OOOO++++++++OOOO....oooo    ",
"    ............OOOO++++++++OOOO++++OOOO++++++++OOOO....oooo    ",
"    ............OOOO++++++++OOOO++++OOOO++++++++OOOO....oooo    ",
"    ............OOOO++++++++OOOO++++OOOO++++++++OOOO....oooo    ",
"....XXXXoooo........OOOO++++++++OOOO++++++++OOOO........ooooXXXX",
"....XXXXoooo........OOOO++++++++OOOO++++++++OOOO........ooooXXXX",
"....XXXXoooo........OOOO++++++++OOOO++++++++OOOO........ooooXXXX",
"....XXXXoooo........OOOO++++++++OOOO++++++++OOOO........ooooXXXX",
"oooooooo................OOOO++++++++++++OOOO........XXXX    oooo",
"oooooooo................OOOO++++++++++++OOOO........XXXX    oooo",
"oooooooo................OOOO++++++++++++OOOO........XXXX    oooo",
"oooooooo................OOOO++++++++++++OOOO........XXXX    oooo",
"oooooooooooo    ............OOOO++++OOOO............    oooo    ",
"oooooooooooo    ............OOOO++++OOOO............    oooo    ",
"oooooooooooo    ............OOOO++++OOOO............    oooo    ",
"oooooooooooo    ............OOOO++++OOOO............    oooo    ",
"    ....XXXX....................OOOO........................oooo",
"    ....XXXX....................OOOO........................oooo",
"    ....XXXX....................OOOO........................oooo",
"    ....XXXX....................OOOO........................oooo",
"....ooooXXXX........XXXXooooXXXXoooo    ............    ooooXXXX",
"....ooooXXXX........XXXXooooXXXXoooo    ............    ooooXXXX",
"....ooooXXXX........XXXXooooXXXXoooo    ............    ooooXXXX",
"....ooooXXXX........XXXXooooXXXXoooo    ............    ooooXXXX",
"........XXXX....ooooXXXX............XXXXXXXXooooXXXX....XXXX....",
"........XXXX....ooooXXXX............XXXXXXXXooooXXXX....XXXX....",
"........XXXX....ooooXXXX............XXXXXXXXooooXXXX....XXXX....",
"........XXXX....ooooXXXX............XXXXXXXXooooXXXX....XXXX....",
"........XXXXXXXX    XXXXXXXX    ....XXXXXXXX    oooo    ooooXXXX",
"........XXXXXXXX    XXXXXXXX    ....XXXXXXXX    oooo    ooooXXXX",
"........XXXXXXXX    XXXXXXXX    ....XXXXXXXX    oooo    ooooXXXX",
"........XXXXXXXX    XXXXXXXX    ....XXXXXXXX    oooo    ooooXXXX"
};
