/* XPM */
static char *fafaf1c79212419fd2b1c615115b1133pl8ivvJbnhwxDdLK[] = {
/* columns rows colors chars-per-pixel */
"64 64 153 2 ",
"   c #0F0C1E",
".  c #100B1F",
"X  c #110C21",
"o  c #1A0A25",
"O  c #1D0D29",
"+  c #141127",
"@  c #22092B",
"#  c #2B0B32",
"$  c #3E0236",
"%  c #241D3C",
"&  c #2C1A3F",
"*  c #1E233D",
"=  c #21223E",
"-  c #440036",
";  c #45033B",
":  c #4A013C",
">  c #42093E",
",  c #2B1E42",
"<  c #1F2741",
"1  c #1E2942",
"2  c #212642",
"3  c #2A2144",
"4  c #212843",
"5  c #322046",
"6  c #362049",
"7  c #4A0540",
"8  c #520041",
"9  c #5A014D",
"0  c #5B0450",
"q  c #5C0A53",
"w  c #5C1053",
"e  c #60004E",
"r  c #640254",
"t  c #6A0255",
"y  c #620C53",
"u  c #670358",
"i  c #680459",
"p  c #680F59",
"a  c #700057",
"s  c #74005B",
"d  c #621553",
"f  c #681859",
"g  c #740565",
"h  c #760C66",
"j  c #760068",
"k  c #7E056B",
"l  c #770968",
"z  c #7B0C6C",
"x  c #761466",
"c  c #7F146B",
"v  c #771969",
"b  c #7A256D",
"n  c #83076F",
"m  c #830E6F",
"M  c #83186F",
"N  c #860771",
"B  c #860F71",
"V  c #851770",
"C  c #861971",
"Z  c #930D81",
"A  c #960092",
"S  c #980094",
"D  c #932E81",
"F  c #A605A2",
"G  c #A50DA1",
"H  c #B106AD",
"J  c #B10CAD",
"K  c #B213AE",
"L  c #B11AAD",
"P  c #BB00B4",
"I  c #C300BE",
"U  c #CB01C5",
"Y  c #CB0DC7",
"T  c #CC0FC8",
"R  c #D200CB",
"E  c #CB15C7",
"W  c #CC19C8",
"Q  c #D214CD",
"!  c #D21ACD",
"~  c #DD00D8",
"^  c #E400DE",
"/  c #D22BCD",
"(  c #DA29D1",
")  c #E62EDF",
"_  c #E700E2",
"`  c #EA01E3",
"'  c #F201ED",
"]  c #F30DED",
"[  c #FB02F5",
"{  c #FD0CF7",
"}  c #FF03FA",
"|  c #FF0EF9",
" . c #FF16F9",
".. c #E72AE2",
"X. c #EA2EE4",
"o. c #F22CED",
"O. c #E630E0",
"+. c #EC32E5",
"@. c #EA38E4",
"#. c #EF30E8",
"$. c #F231ED",
"%. c #F62CF1",
"&. c #FB2CF6",
"*. c #FE2DF9",
"=. c #FC35F7",
"-. c #FF35FA",
";. c #FF3BFB",
":. c #D256CC",
">. c #D956D2",
",. c #E758E4",
"<. c #EC5CE6",
"1. c #EC58E9",
"2. c #F15BEE",
"3. c #F840F3",
"4. c #FF42FB",
"5. c #FF48FA",
"6. c #F85EF4",
"7. c #FD5CF9",
"8. c #E662E1",
"9. c #EB64E5",
"0. c #EA6EE6",
"q. c #EF66EA",
"w. c #F164EE",
"e. c #F563F2",
"r. c #F965F5",
"t. c #F66CF3",
"y. c #F86CF4",
"u. c #FE64FB",
"i. c #FE6BFB",
"p. c #FF73FC",
"a. c #FF7BFC",
"s. c #D68CD1",
"d. c #DA8CD4",
"f. c #F18FEE",
"g. c #EA9EE5",
"h. c #FF85FB",
"j. c #F69DF4",
"k. c #FE9FFC",
"l. c #EBA2E7",
"z. c #EFA5EA",
"x. c #EEACEA",
"c. c #F7A2F4",
"v. c #F8A4F5",
"b. c #F8ACF5",
"n. c #FEA7FB",
"m. c #FEADFC",
"M. c #FEB4FC",
"N. c #FFBBFD",
"B. c #FFC3FE",
"V. c #FFC9FD",
"C. c #FEECFD",
"Z. c #FFF6FE",
"A. c #FFFFFF",
/* pixels */
"X X . X . X X X . X X X X X . X . X X X   X . X = * 1 4 4 4 4 4 4 4 4 4 = 4 = 4 4 4 4 * +   X   X X   X X X . X   . . X X X X   ",
"X . X . . . . X . X . X . X . X X X . X X . X X = = 4 4 4 4 4 = = 4 4 4 4 4 4 4 4 4 = * +   . X X . X . . X X X X X   X . X X . ",
"X . X . . . . . X . X X . X X X X . X X X X . + = 4 = 1 4 * 4 = 4 * 4 1 = 4 = 4 4 * 4 * + . X X . X X X . X . X X X X X X . X . ",
"X X . X + . . . X X X . X X . X X X . . . X . X = 4 = 4 3 3 3 3 3 3 3 3 4 = 4 4 4 = 4 * X . X X X   X . X X X X   . . X X X X X ",
". X . X . X + . . X X X X X X . X . X X X . . X * * * 3 d i i r r i y q 3 * 4 4 4 = 4 * + . . X X   X X . X X . X X X X . . X X ",
"X . X X X . . . X   X X . X X X X . X   X X . + = 1 4 3 i s s s s s s i 3 4 4 4 1 = 4 * X . X X . X . X X X   X . X . . X X . X ",
". . X . X . . .   . X X . X . . . . . . . . . X * 4 * 3 r a t t t t a r 3 1 4 = 4 4 = * + . X . X X X X . . X X X . X X X . X X ",
"X X . X . X . X X X X + X + X X X + + X X X . + = 3 = 6 v M M M M M M v 5 = 3 = * * = = X . . X X . X . X X X . X X . X X X X . ",
"X X X X X       = = = * * = * * * * = * X X . o 9 i e x d.z.l.l.l.l.z.s.d ; : > + + X X . . X . X X   X + X X X . X X X   X X X ",
"X X   X X X   + = = 4 4 1 4 4 * 4 4 4 * X X . O t s a M z.B.N.N.N.N.B.z.f : 8 7 O . X . . X . X X X X         X X . X X X   X X ",
"  X X       + + * * 1 4 * 4 1 4 4 4 4 * X     + e a t c l.N.M.N.M.N.N.l.d - ; ; X       . . X X             X X . X X X . X . X ",
"X X   X X + + + = * * 4 4 = 4 4 1 * 4 = O O O # v M c D x.B.N.B.B.M.N.l.b y p w @ o o o X . . X X X + X + + + + X X X X X .   X ",
"  X . X * * * * 4 4 4 * 4 4 4 = 4 = 4 3 q i r v s.z.l.x.C.Z.Z.C.B.M.N.m.0.8.q.:.w - ; - o   . X = = * * * * * * * * * = X   X X ",
"X X X X = 4 * 4 4 = 4 4 4 4 4 4 4 4 = 3 i s a M z.B.N.B.Z.A.A.Z.B.M.N.m.a.p.a.q.p ; 8 ; o   . X = * = * 4 4 4 4 4 * * = X X X X ",
"X X   X * 4 4 = * 4 4 4 4 4 4 = 4 1 * 3 e a i M l.N.M.B.Z.A.A.Z.B.N.N.M.a.y.p.8.y - : - o   . + * 4 = = = 1 = 4 = 4 = * X X . . ",
"X X X X = 4 * 4 4 4 = 4 4 4 * 4 3 3 3 6 v C C C x.B.B.V.C.Z.Z.C.N.b.M.m.a.p.p.9.c r i q @ X o + = 4 * 4 4 4 4 4 4 = = = + X X X ",
"X X X X = = * 4 4 = 4 = 4 4 4 3 q i y v d.z.g.x.C.Z.Z.C.V.B.B.N.h.a.a.a.p.p.p.r.@...+./ q ; 7 > = = 4 4 4 4 4 4 4 = 4 * * * * * ",
"X X X X = = * 4 4 4 4 4 = 4 4 3 i s a C x.B.N.B.Z.A.A.Z.B.M.N.m.a.i.p.p.p.p.p.i.4.-.;.+.i ; 8 7 4 4 4 = = 4 = 4 4 4 = 4 4 4 4 4 ",
"X X   X = 4 4 4 4 = 4 4 1 4 * 3 r a t C l.N.M.B.Z.A.A.Z.B.N.B.M.a.p.p.p.p.p.p.i.;.=.;...r - : ; = 4 4 = 1 4 = 4 4 1 4 4 1 = 4 4 ",
"  X . X * 4 = 4 4 4 = 4 3 3 4 6 v M M C z.N.N.B.C.Z.Z.C.b.j.c.j.t.e.e.r.y.p.p.i.5.;.4.@.z r i q 6 = 4 = = 4 4 4 = 4 4 = 4 4 = 4 ",
"      + * 4 * 4 4 4 * 3 q i r v s.z.l.l.M.N.M.N.B.B.B.b./ W W W E T Y ! r.p.p.p.i.i.i.r.@...+./ f > : > 3 4 4 4 4 4 4 4 4 4 4 4 ",
"X     + * 4 * 4 = 4 4 3 i s a M z.B.N.B.N.N.N.N.N.M.N.j.W I I I I I I T r.p.p.p.p.p.p.i.4.-.;.X.p : : : = 4 = = * = 4 1 4 = 1 = ",
"  X   + * 4 4 4 4 4 * 3 r a t c g.N.M.M.N.N.M.N.N.N.B.v.E P U I I I I T r.a.p.p.p.p.p.i.;.=.-.) y - : ; = 4 4 4 4 4 = 4 4 * 4 4 ",
"X X + + = * * = 3 3 3 6 v M c D x.B.B.B.N.M.N.M.v.j.v.f./ E W E E T Y ! 1.w.w.w.i.p.p.i.5.;.4.@.m e t y 5 = = 3 = 4 4 4 * * * = ",
"X X   X o + X O y t y v d.z.g.x.C.Z.Z.C.B.N.N.v./ W E / f.v.c.j.t.6.r.1.L G G L e.p.p.i.i.i.i.r.@...+./ q ; 7 > 4 = = = + + + + ",
"X   X . . .   O t s a M z.B.N.B.Z.A.A.Z.B.M.N.c.W I P W v.B.B.M.a.p.a.e.G A A G q.p.p.p.p.p.p.i.4.-.;.+.i : 8 7 = 4 = = +       ",
"X . . . . .   @ r a t M l.N.M.N.Z.A.A.Z.B.N.B.c.W P U E j.N.M.m.a.y.p.q.G A A G e.a.a.p.p.i.p.i.;.=.;...r - : ; 4 4 4 = X . X   ",
". . . X . @ . # x V B C l.B.M.B.C.Z.Z.C.b.j.c.f./ E E / b.B.B.N.h.a.a.t.L G G L ,.e.w.w.p.p.p.i.;.-.-.+.z y i q & = = = X   X X ",
"X X X o e y e x >.w.<.0.m.N.N.N.B.B.B.b./ W W / f.v.j.b.C.Z.Z.C.N.m.M.v.t.q.e.,.L G G L w.p.p.i.4.=.;.=.+.) X./ y : : - o   X X ",
"X . X o t s a m w.p.p.h.M.N.N.M.M.M.N.j.W I I W c.B.N.B.Z.A.A.Z.B.M.N.M.a.p.a.w.G S A G w.p.p.i.;.=.=.;.;.-.;.+.t : : : o     X ",
". X . o e s a m 9.p.p.a.M.N.N.N.N.N.B.c.W I I W c.N.N.B.Z.A.A.Z.B.N.N.M.a.p.p.w.G S S G w.a.p.i.4.=.-.;.-.=.;.O.y : : : o   X   ",
"X X X O e s a m <.p.u.p.n.M.m.M.M.m.M.j.W I I E j.M.m.N.C.Z.Z.C.N.m.M.n.p.u.p.2.G S S G 2.i.i.u.;.-.-.=.=.&.-.) t : : - o + X X ",
"* * * % r s a n @.4.;.5.p.a.a.a.a.a.a.y.E P P E y.a.a.h.N.B.B.N.h.a.a.p.5.;.4.$.F S A F $.5.;.;.;.-.;.=.{ } { _ r ; 8 ; % * * * ",
"2 4 1 3 e s t n X.-.=.;.i.p.p.p.p.p.p.e.T U U Y e.p.i.a.m.M.N.m.a.i.p.i.;.=.=.$.F A S F %.;.-.-.-.-.-.*.} } } _ t : 8 ; % 2 2 2 ",
"4 2 1 & t s a n #.;.-.4.i.p.p.p.p.p.p.r.Y I U Y r.a.p.a.M.N.N.M.a.p.a.i.4.-.;.$.F A A F #.-.;.;.-.;.;.*.} } } ` u ; 8 ; = 4 2 4 ",
"* = * % 9 t e g ( $.X.+.r.i.i.i.i.i.i.6.! Y Y ! 2.r.e.y.k.m.n.n.i.u.u.7.$.o.$...J F F J %.-.*.*.-.*.*.&.` _ ` R 0 - : - % * * * ",
"+ X X + o o o # g N k Z @.4.;.;.;.;.4.3.e.e.r.2.! Y Y Q 3.5.5.;. .{ | ] J F F J ..$.#.%.{ } } [ } } } ` k r u 0 o o o o X X X + ",
"  . . . . .   o e a t n X.-.-.-.=.-.-.;.i.p.p.r.Y I U U %.-.-.*.} } } ' F A A F %.;.;.*.} } [ } [ [ } ` r - : ; o       X . . X ",
"X . . . . X . o t s t n #.;.;.;.-.;.;.;.i.p.p.e.Y U P U %.;.;.-.} } } ' F A A F o.-.;.*.{ } } } } } } ` u : 8 : o   . X X . X X ",
"X X . X . . . o 9 t e g ( o.X.o.=.=.;.;.u.i.i.6.W Y E Q o.$.$.o.' ' ' _ H F F J o.-.*.&.[ [ [ [ ` ^ ` R 0 - ; $ o   X . X X . X ",
". X . . . . . X O o o # g n k B #.;.-.;.;.4.;.3.6.e.r.1.K F F F F F F H ..$.#.%.{ } } { _ ^ _ R j r u 0 o o o X     X X X X . X ",
"X . . . . X X . . .   o e a t n X.-.-.-.-.-.-.4.i.a.p.w.G A S S A A A F %.;.;.*.} } } [ ^ ~ ^ U 9 - : - o   . X .   X X X X . X ",
". . . . . . . . . X . o t s a N #.;.-.-.=.;.-.;.i.p.a.w.G A A S S A A F o.-.=.-.} } } [ _ ^ ` R r : 8 ; o   X X . X . X X X   . ",
"+ + X + + X + + . . . O 9 r e g ( #.+.#.=.=.;.;.u.i.i.2.K F F F F F F J o.-.*.&.[ [ [ ' R U R P 9 ; ; $ o   X X X X X X X + X X ",
"* * * * = * = * + . . . o O o # l N N N #.;.-.-.;.;.4.;.$.o.o.o.$.%.o.%.{ } } [ _ ^ _ R j 0 r 9 @ o o . X X X X * * * * * * * * ",
"4 4 4 4 = = 4 * X . . . .     O r a t n +.-.=.-.-.=.=.=.-.;.;.;.;.;.;.*.} } } [ ^ ~ ~ U 9 ; : - o       X X   X * 4 2 2 4 2 4 4 ",
"= = = 4 1 = = * X . . . . . . O i s t N o.;.;.;.-.;.-.-.-.;.-.=.-.-.-.*.{ } } [ _ ^ _ R r : 8 ; o   . . X X X X * 2 2 < 2 < 2 2 ",
"1 1 4 4 4 4 1 * + + X + X . . O 9 i r h ( $.X.X.=.;.-.;.-.-.-.-.*.-.-.&.[ [ [ ' R U R P 9 ; : $ o . X . X X X + * 2 < 2 2 2 2 2 ",
"1 4 4 4 4 = 4 = = * * * +   +   @ O O # h N n N $.;.-.-.;.-.-.-.{ } } [ _ ^ _ R g e t 9 @ . o .   . . X * * * * 2 2 2 2 2 4 2 2 ",
"4 4 = 4 4 4 4 4 4 * 4 * +             . e a t n +.-.;.=.=.-.;.&.} } } [ ^ ~ ^ U 9 - : : o . . X   . X X * 4 2 2 2 2 2 2 2 2 2 4 ",
"4 4 4 4 * 4 4 = 4 4 4 * +   X X X .   o t s a B #.;.-.;.;.-.-.-.{ [ } [ _ ^ ` R r : : : o . . . X X X X * 2 2 < 2 2 < 2 2 2 2 4 ",
"4 = 4 4 4 4 4 4 4 * 4 = X   X   X .   @ 9 t e s / +...X.&.*.-.*.} [ [ ' R U R P 9 - : - . . . . X X X X * 2 < 2 2 2 2 2 4 4 2 2 ",
"4 = 4 = 4 4 4 4 4 = * = + X X X X     . @ . @ # 0 i r k ` } } [ ^ ^ _ R j e r 9 @ o o . . X . X X X X X < 4 2 2 4 4 2 4 2 2 4 2 ",
"4 4 4 4 4 = 4 * = * * = X X X   X X . .       . ; : - r _ } [ [ ^ ~ ^ U e ; : - . . . . X . . X X X X X * 4 < 2 = 4 = 4 2 4 4 2 ",
"4 4 4 4 4 4 4 4 4 4 = = X   X X X . . . . . X o : 8 : t ` } } } _ ^ ` R r : 8 ; o . . . .   . X X X   X = 2 2 2 4 = 4 4 2 4 2 2 ",
"= 4 4 = 4 = 4 = * * = = X   X X X o . . . . . . $ ; - 0 R ` _ ^ R U R P 9 - ; - o . . . X . X   X   . X * * * * 4 4 = 4 2 2 2 4 ",
"4 4 4 4 = = = * + + + X         . X X X X . X . X o X @ 0 t r i r 0 r 0 , % % % X   X X X X X X X X . X X + X + * 4 4 4 = 4 4 4 ",
"* 4 * 4 4 * = * + X     +       X X X . X . .   . .   O ; : : : : ; : ; 3 < 1 * X   X X X   X   . . . . . . . X * 4 1 = 4 * = 4 ",
"4 4 4 4 4 = * = + X X X X   X X X . . X X . X . . . . o : 8 8 8 : 8 8 7 2 = 2 * +         X X X X X . X X X . + * = 4 4 4 4 4 4 ",
"* * * * * * = * X     X X X X X   X X X . X . . X + + + > : : : : 7 : > = 4 2 * + X + + X   X X X .   X . X . X * * * * * * * * ",
"+ + + X X + X X . . . X X   X X . X X . . .   X = * * * = = = = 3 = = = 2 2 2 2 = = = * X   X . X X X . X X . X X + X + + + X + ",
"+ +     . . X . . X . . X X X X X X   X X . . + = = 4 4 4 4 3 4 2 4 4 4 2 2 2 2 4 4 * * X   X X . X X X . . . . . . . .   . . . ",
"  X X X . X X . X . X X X . X X X . X X X . . + * 4 = 1 = 4 = 4 = 4 = 4 = 4 2 2 1 4 = * + . . X X X . X X X . X   X . X X . . X ",
"X X   X X X . X . X . X . X X   X . X . X X   + * 4 = 4 4 4 4 = 4 4 4 4 4 2 2 4 4 * * * o . X X . X . X   X . X . X X X   X X . "
};
