/* XPM */
static char *_2b35091b8f44a80e31ccfb780913eb7vQEEtqLSKvqRxDcV[] = {
/* columns rows colors chars-per-pixel */
"64 64 11 1 ",
"  c None",
". c #4F003F",
"X c #71005A",
"o c #9A0096",
"O c #C500C0",
"+ c #E100DC",
"@ c #FF00F9",
"# c #FF37FA",
"$ c #FF73FC",
"% c #FFBAFD",
"& c white",
/* pixels */
"                                                                ",
"                                                                ",
"                                                                ",
"                                                                ",
"                            XXXXXXXX                            ",
"                            XXXXXXXX                            ",
"                            XXXXXXXX                            ",
"                            XXXXXXXX                            ",
"                        XXXX%%%%%%%%....                        ",
"                        XXXX%%%%%%%%....                        ",
"                        XXXX%%%%%%%%....                        ",
"                        XXXX%%%%%%%%....                        ",
"                    XXXX%%%%&&&&%%%%$$$$....                    ",
"                    XXXX%%%%&&&&%%%%$$$$....                    ",
"                    XXXX%%%%&&&&%%%%$$$$....                    ",
"                    XXXX%%%%&&&&%%%%$$$$....                    ",
"                XXXX%%%%&&&&%%%%$$$$$$$$####....                ",
"                XXXX%%%%&&&&%%%%$$$$$$$$####....                ",
"                XXXX%%%%&&&&%%%%$$$$$$$$####....                ",
"                XXXX%%%%&&&&%%%%$$$$$$$$####....                ",
"            XXXX%%%%%%%%%%%%OOOOOOOO$$$$$$$$####....            ",
"            XXXX%%%%%%%%%%%%OOOOOOOO$$$$$$$$####....            ",
"            XXXX%%%%%%%%%%%%OOOOOOOO$$$$$$$$####....            ",
"            XXXX%%%%%%%%%%%%OOOOOOOO$$$$$$$$####....            ",
"        XXXX%%%%&&&&%%%%OOOO%%%%$$$$oooo$$$$$$$$####....        ",
"        XXXX%%%%&&&&%%%%OOOO%%%%$$$$oooo$$$$$$$$####....        ",
"        XXXX%%%%&&&&%%%%OOOO%%%%$$$$oooo$$$$$$$$####....        ",
"        XXXX%%%%&&&&%%%%OOOO%%%%$$$$oooo$$$$$$$$####....        ",
"    XXXX$$$$%%%%%%%%OOOO%%%%&&&&%%%%$$$$oooo$$$$########....    ",
"    XXXX$$$$%%%%%%%%OOOO%%%%&&&&%%%%$$$$oooo$$$$########....    ",
"    XXXX$$$$%%%%%%%%OOOO%%%%&&&&%%%%$$$$oooo$$$$########....    ",
"    XXXX$$$$%%%%%%%%OOOO%%%%&&&&%%%%$$$$oooo$$$$########....    ",
"    XXXX####$$$$$$$$OOOO$$$$%%%%$$$$####oooo########@@@@....    ",
"    XXXX####$$$$$$$$OOOO$$$$%%%%$$$$####oooo########@@@@....    ",
"    XXXX####$$$$$$$$OOOO$$$$%%%%$$$$####oooo########@@@@....    ",
"    XXXX####$$$$$$$$OOOO$$$$%%%%$$$$####oooo########@@@@....    ",
"        XXXX########$$$$OOOO####@@@@oooo####@@@@@@@@....        ",
"        XXXX########$$$$OOOO####@@@@oooo####@@@@@@@@....        ",
"        XXXX########$$$$OOOO####@@@@oooo####@@@@@@@@....        ",
"        XXXX########$$$$OOOO####@@@@oooo####@@@@@@@@....        ",
"            XXXX########$$$$oooooooo####@@@@++++....            ",
"            XXXX########$$$$oooooooo####@@@@++++....            ",
"            XXXX########$$$$oooooooo####@@@@++++....            ",
"            XXXX########$$$$oooooooo####@@@@++++....            ",
"                XXXX################@@@@++++....                ",
"                XXXX################@@@@++++....                ",
"                XXXX################@@@@++++....                ",
"                XXXX################@@@@++++....                ",
"                    XXXX########@@@@++++....                    ",
"                    XXXX########@@@@++++....                    ",
"                    XXXX########@@@@++++....                    ",
"                    XXXX########@@@@++++....                    ",
"                        ....@@@@++++....                        ",
"                        ....@@@@++++....                        ",
"                        ....@@@@++++....                        ",
"                        ....@@@@++++....                        ",
"                            ........                            ",
"                            ........                            ",
"                            ........                            ",
"                            ........                            ",
"                                                                ",
"                                                                ",
"                                                                ",
"                                                                "
};
