/* XPM */
static char *_7a7d7a45b4545ba83b7c8237521c33ba1URy9cB99klqI78[] = {
/* columns rows colors chars-per-pixel */
"64 64 9 1 ",
"  c #3800AC",
". c #4300B7",
"X c #5100C1",
"o c #5E02C8",
"O c #7B17D6",
"+ c #821ED8",
"@ c #8521DA",
"# c #9433E0",
"$ c #9939E1",
/* pixels */
"    ....ooooOOOOoooo        XXXXXXXXXXXX    ....ooooOOOOoooo    ",
"    ....ooooOOOOoooo        XXXXXXXXXXXX    ....ooooOOOOoooo    ",
"    ....ooooOOOOoooo        XXXXXXXXXXXX    ....ooooOOOOoooo    ",
"    ....ooooOOOOoooo        XXXXXXXXXXXX    ....ooooOOOOoooo    ",
"....ooooOOOOoooo    ....XXXXooooooooooooXXXXXXXX....oooooooooooo",
"....ooooOOOOoooo    ....XXXXooooooooooooXXXXXXXX....oooooooooooo",
"....ooooOOOOoooo    ....XXXXooooooooooooXXXXXXXX....oooooooooooo",
"....ooooOOOOoooo    ....XXXXooooooooooooXXXXXXXX....oooooooooooo",
"oooo$$$$oooo    ....++++$$$$$$$$$$$$$$$$$$$$++++    ....ooooOOOO",
"oooo$$$$oooo    ....++++$$$$$$$$$$$$$$$$$$$$++++    ....ooooOOOO",
"oooo$$$$oooo    ....++++$$$$$$$$$$$$$$$$$$$$++++    ....ooooOOOO",
"oooo$$$$oooo    ....++++$$$$$$$$$$$$$$$$$$$$++++    ....ooooOOOO",
"$$$$XXXX    ....++++$$$$++++oooooooooooo++++$$$$++++    ....oooo",
"$$$$XXXX    ....++++$$$$++++oooooooooooo++++$$$$++++    ....oooo",
"$$$$XXXX    ....++++$$$$++++oooooooooooo++++$$$$++++    ....oooo",
"$$$$XXXX    ....++++$$$$++++oooooooooooo++++$$$$++++    ....oooo",
"$$$$    ....oooo$$$$++++............        ++++$$$$oooo    XXXX",
"$$$$    ....oooo$$$$++++............        ++++$$$$oooo    XXXX",
"$$$$    ....oooo$$$$++++............        ++++$$$$oooo    XXXX",
"$$$$    ....oooo$$$$++++............        ++++$$$$oooo    XXXX",
"OOOO    XXXX++++oooo....ooooOOOO++++oooo....    oooo$$$$........",
"OOOO    XXXX++++oooo....ooooOOOO++++oooo....    oooo$$$$........",
"OOOO    XXXX++++oooo....ooooOOOO++++oooo....    oooo$$$$........",
"OOOO    XXXX++++oooo....ooooOOOO++++oooo....    oooo$$$$........",
"OOOO    oooo++++XXXXooooOOOOoooooooo$$$$oooo....    oooo$$$$....",
"OOOO    oooo++++XXXXooooOOOOoooooooo$$$$oooo....    oooo$$$$....",
"OOOO    oooo++++XXXXooooOOOOoooooooo$$$$oooo....    oooo$$$$....",
"OOOO    oooo++++XXXXooooOOOOoooooooo$$$$oooo....    oooo$$$$....",
"OOOO    ooooOOOOXXXX....oooo....    oooo$$$$oooo....oooo$$$$XXXX",
"OOOO    ooooOOOOXXXX....oooo....    oooo$$$$oooo....oooo$$$$XXXX",
"OOOO    ooooOOOOXXXX....oooo....    oooo$$$$oooo....oooo$$$$XXXX",
"OOOO    ooooOOOOXXXX....oooo....    oooo$$$$oooo....oooo$$$$XXXX",
"++++XXXXooooOOOOooooXXXX        ....oooo++++ooooXXXXoooo@@@@XXXX",
"++++XXXXooooOOOOooooXXXX        ....oooo++++ooooXXXXoooo@@@@XXXX",
"++++XXXXooooOOOOooooXXXX        ....oooo++++ooooXXXXoooo@@@@XXXX",
"++++XXXXooooOOOOooooXXXX        ....oooo++++ooooXXXXoooo@@@@XXXX",
"####........ooooOOOOoooooooooooooooo++++oooooooo....oooo++++XXXX",
"####........ooooOOOOoooooooooooooooo++++oooooooo....oooo++++XXXX",
"####........ooooOOOOoooooooooooooooo++++oooooooo....oooo++++XXXX",
"####........ooooOOOOoooooooooooooooo++++oooooooo....oooo++++XXXX",
"$$$$oooo    ....ooooOOOOOOOO++++++++ooooooooXXXX    oooo$$$$XXXX",
"$$$$oooo    ....ooooOOOOOOOO++++++++ooooooooXXXX    oooo$$$$XXXX",
"$$$$oooo    ....ooooOOOOOOOO++++++++ooooooooXXXX    oooo$$$$XXXX",
"$$$$oooo    ....ooooOOOOOOOO++++++++ooooooooXXXX    oooo$$$$XXXX",
"++++++++oooo    ....ooooooooooooooooooooXXXX    XXXXoooo$$$$XXXX",
"++++++++oooo    ....ooooooooooooooooooooXXXX    XXXXoooo$$$$XXXX",
"++++++++oooo    ....ooooooooooooooooooooXXXX    XXXXoooo$$$$XXXX",
"++++++++oooo    ....ooooooooooooooooooooXXXX    XXXXoooo$$$$XXXX",
"....++++$$$$XXXX            ....            XXXXoooo$$$$oooo....",
"....++++$$$$XXXX            ....            XXXXoooo$$$$oooo....",
"....++++$$$$XXXX            ....            XXXXoooo$$$$oooo....",
"....++++$$$$XXXX            ....            XXXXoooo$$$$oooo....",
"    ....++++$$$$ooooXXXXXXXXXXXXXXXXXXXXXXXXooooOOOOooooXXXX    ",
"    ....++++$$$$ooooXXXXXXXXXXXXXXXXXXXXXXXXooooOOOOooooXXXX    ",
"    ....++++$$$$ooooXXXXXXXXXXXXXXXXXXXXXXXXooooOOOOooooXXXX    ",
"    ....++++$$$$ooooXXXXXXXXXXXXXXXXXXXXXXXXooooOOOOooooXXXX    ",
"....    ....++++$$$$$$$$####++++++++++++OOOOOOOOooooXXXX        ",
"....    ....++++$$$$$$$$####++++++++++++OOOOOOOOooooXXXX        ",
"....    ....++++$$$$$$$$####++++++++++++OOOOOOOOooooXXXX        ",
"....    ....++++$$$$$$$$####++++++++++++OOOOOOOOooooXXXX        ",
"    XXXX    ....ooooooooooooooooooooooooooooXXXX....    ....    ",
"    XXXX    ....ooooooooooooooooooooooooooooXXXX....    ....    ",
"    XXXX    ....ooooooooooooooooooooooooooooXXXX....    ....    ",
"    XXXX    ....ooooooooooooooooooooooooooooXXXX....    ....    "
};
