/* XPM */
static char *bf0a6f6635f348e7cf72d72941567772tAFeIIWonzKwktZp[] = {
/* columns rows colors chars-per-pixel */
"64 64 2 1 ",
"  c #110C20",
". c #212742",
/* pixels */
"                        ....................                    ",
"                        ....................                    ",
"                        ....................                    ",
"                        ....................                    ",
"                        ....................                    ",
"                        ....................                    ",
"                        ....................                    ",
"                        ....................                    ",
"        ............        ............                        ",
"        ............        ............                        ",
"        ............        ............                        ",
"        ............        ............                        ",
"    ....................                        ............    ",
"    ....................                        ............    ",
"    ....................                        ............    ",
"    ....................                        ............    ",
"    ....................    ........        ....................",
"    ....................    ........        ....................",
"    ....................    ........        ....................",
"    ....................    ........        ....................",
"    ....................                    ....................",
"    ....................                    ....................",
"    ....................                    ....................",
"    ....................                    ....................",
"        ............                            ............    ",
"        ............                            ............    ",
"        ............                            ............    ",
"        ............                            ............    ",
"                                ............                    ",
"                                ............                    ",
"                                ............                    ",
"                                ............                    ",
"....                        ....................            ....",
"....                        ....................            ....",
"....                        ....................            ....",
"....                        ....................            ....",
"                            ....................                ",
"                            ....................                ",
"                            ....................                ",
"                            ....................                ",
"                ....        ....................                ",
"                ....        ....................                ",
"                ....        ....................                ",
"                ....        ....................                ",
"........        ....            ............            ........",
"........        ....            ............            ........",
"........        ....            ............            ........",
"........        ....            ............            ........",
"............                                        ............",
"............                                        ............",
"............                                        ............",
"............                                        ............",
"............                                        ............",
"............                                        ............",
"............                                        ............",
"............                                        ............",
"........                    ............                ........",
"........                    ............                ........",
"........                    ............                ........",
"........                    ............                ........",
"                        ....................                    ",
"                        ....................                    ",
"                        ....................                    ",
"                        ....................                    "
};
