/* XPM */
static char *_281f75cdcb942d98eab4d7d9f5feaacQ7FUkc149OvsjZB4[] = {
/* columns rows colors chars-per-pixel */
"64 64 27 1 ",
"  c #171324",
". c #171425",
"X c #181324",
"o c #181424",
"O c #181425",
"+ c #181426",
"@ c #181627",
"# c #191728",
"$ c #1A182B",
"% c #1C1B2E",
"& c #1C1C2F",
"* c #1C1C30",
"= c #1D1C30",
"- c #1D1D32",
"; c #1F2035",
": c #1F2137",
"> c #202137",
", c #202138",
"< c #202239",
"1 c #202339",
"2 c #22253C",
"3 c #23263E",
"4 c #242740",
"5 c #242942",
"6 c #262A43",
"7 c #262B43",
"8 c #262B44",
/* pixels */
"OOOOOOOOOOOOOOOOOOOOO #*:485588888888888884,=# X#X# XX#X# XX#X# ",
"OOOOOOOOOOOOOOOOOOOOO .*:588888888888885884:=  X XXX # XXX # XXX",
"OOOOOOOOOOOOOOOOOOOOO #*14855888888888884841*# XX # XXX #X#XX # ",
"OOOOOOOOOOOOOOOOOOOOO #*>4888588888585858841*#  X#XX #X# X XX#XX",
"OOOOOX.OOO..OOOO. OO  #*>384888588888888885-*+ ## XX# XX # ##X# ",
"OOOOX.OO  ..    ..  X O*1488888858888558584:*# XXX #XX #XXXX XXX",
"OOOO.X.OOO.#$.O#+++#X #%=244458888858585554-$# X#X#X#X#XX# XX # ",
"OOOXO OO$&*&&******$$XO$=11245858585885222-*$+   X X X XX #XX#XX",
"OX.OOXO%*;11>>>>::1%$XX$$*=:2558585888521*$##  #OO..OOOXX# X# XX",
"X.XXXOO*;23553432511=XXO #$*14888888884:=*+# #X   ..           X",
".XXOO##*15588888884:*=#OXX#=,1442452442:$+XX XXXO##+O# ## ##O.X+",
"O X$#%=>255558588844:*$$$XX#=,1:111:11-*$#XXX +#$$*****=**$$#O .",
"O O$%>>33588885888542::=$  #$=*===****$$## #  +$*-11::1,,11*$   ",
"O #=>335565858858555544-=+ + ## #X#OO###X X    *12444444442-=#  ",
".  *>388855858888888584:*# X##### #OO    X# ##$=13888888884:*$##",
". #*>585888888885885888-*# $$$**=*=$#OXOX  #$$-12585848884821***",
"O #*:4888588588885585851*#.$*-2--1;*$O OOOO$=,:435855855885331>>",
"O #*:485588888888888883>*.O*1244552;&O OOOO$-2455888888885555534",
"O #*:488888888888885484>*#O*-244442;&O OO.$=14858558588885888858",
"O .*1485585888858858884>*##$=:2->1;&$O OO. =,4888888888888858585",
"#  *14848888888858585851*+.O$$**%**$#O OO O*14845885888858865858",
"  $=>488855858888858883>*#..$++#X##OO.O.O $*14888888888588568888",
"X X=>255558888858855423>*O X         O.OO .*12445588588888555553",
"X X#%11135858585585331>%$# X  #XOOO O.OOO .$=*1225858585585311>1",
"# XO$**12455585888531=*$#O O XOXOO OOOOO XX#$**1258458888652>***",
"  OOOO$*188888888831&$# XOX. #     .       X #$*15888888883>&%$O",
"O.O.. O%,2542455333>%O   X.X X#XO##.#.##O##$X #*>1445252533>&OXX",
"OO.OO.O$%1::>>1;1>>%$O OO.XOX  #$%********%$$ O$%>>111:;>>>&$OXO",
"OO.OO O##=******%=&$$  OOX.OO X$%>,1::11::-*$OO#$=**&&&**&&$$OOO",
"     O.OXX#O$.#O$XOOO.X.X.X   #*-2444442444-*# OXX #$O.#.#OOO   ",
"OO$.OOO XOX     OX   O.X.X.OO##*188888888841*$ OO OO    ..  .$OO",
"***$OO.OOOOO..OOOOOOO.oOO O#$**11458585888421-=$#OOOOOOOOO $$&*&",
"-2:=$# OOOOOOOOOOOOOXOOO  X#=1:245885585884331%=%XOOOOOOO O$*;1:",
"442-*# OOOOOOOOOOOOOOOOOX#X*-244558888888855533>%XOOOOOOO O*;225",
"442:$# OOOOOOOOOOOOOOOOO# $=14888488888585588851*#XOOOOOO O*1244",
"-2=*$# OOOOOOOOXOOOOXOOO  X=1388888588888888863>*OXOOOOOO O$==11",
"==*$#O OXOOOOX.OOOOOO.OOX #*1488858858888855584>*# OOOOXO O#$%=*",
"+## O.X.OOOOX.X     .O.OX #*-888588888888888584>=# OOOOO.X.OX## ",
"     X.XOOOO.X  OOOOOO..   *:2858888888888858831*# .OOOOX.X     ",
"O.+ O.OOXOOXO  #$**$OO +  $*:588855888858588584,*. .OOOXOO.OOOO ",
"OO .OOOOO.XOO #$*;,=$XXOO #*:484888888885886585,*# XX #XOO..OOOO",
"         X.OO #$;22== .OO #*:4888458588888588531*#  #           ",
"#.##+## O.X.O #*1251*# OO #*-2485888888888555521*+ #   XO# ####.",
"******=$#O OO #*;541*O OX  $*1122585585568531,>=$  XX ##$=******",
"1:::::-*$XXX. #*>55-*$ .O O#$=*1285585885843>=%###  XXX$*-1:::11",
"25455421*#X XX#*>351*. ..X.OX#$*:28888858831*##O  X XX#$12454442",
"88888851*$#OO #$>22;*O OO.X X #$11545353533>*OXX   X #$=14888888",
"884888411*$$#OX#%>;*$O OOX.OX O$=:1>1>>>>>>%%OXOX ##$==1:8488848",
"485858524:1%$XX%$**$$. OXOOXO O#$*********$$#O OX #$%,1144858858",
"888588555411%XXXOOOOO.X.OOOO.X.O.#O#++######O.X.X #*>22558885888",
"888885588851*OXX    .X.XOOOOX.X     ..       X.O..+*148585885888",
"888888885821*O XOOOOO.XOOOOXOO.OO OO..OO  OOO.XO .+*:58888858888",
"88885885882>*...OOOOXOOOOX.OOO..OOOO. XO# XXXOOOX #**48458888888",
"888888888551*$ OOOOOOOOOX.OO .      ..    #XOOOOX #*148888588888",
"88858485531>*# OOOOOOOOO.X.OOO##+##O++#X    XO ## #*124858588888",
"5858884431;*$O OOOOOOOOXO OO$%********=$##  XXXX   $=-1225885585",
"858558521%$$$O OXXOOOX.OOXX#%>>1::1-11>%$ XXX# X  X#$=-125858585",
"88888851=%#OO.X.X OOX.X XX#%>3355544442-=#    OX  #X #$-15858888",
"4444522;%#X  X.XX#XX.X.OO#%=>38888888851*$#X #  XO    #$11845352",
">>>>11;*$X XO.XOX #XO O#$$=>258585855552:=%$#X  X  #X O$%-1>,>11",
"==*****$#O OXOOO# X X X#*-22358885858853::1%$# OXXXXO O#$$**%===",
"X# ##O.OO.X.OOOOXXX#X#X*12555858588888555421*# O# OX.X.O##.#X#X#",
"  ..     X.XOOOO# #X# $=1258848888858558885:*+ OOOOOX.X      XXX",
"OOOOOOOOO.XOOOOOXX X  X=1585888588888888884:*+ OOOOOOX.OOOOOOOOO"
};
