/* XPM */
static char *a0d55e40697346cfbdfb3987d95bf7590RS8dgwUrFI9zgS3[] = {
/* columns rows colors chars-per-pixel */
"64 64 153 2 ",
"   c None",
".  c #040604",
"X  c #080402",
"o  c #050906",
"O  c #0E0907",
"+  c #05060B",
"@  c #08070A",
"#  c #060A08",
"$  c #0D0D0D",
"%  c #120D0C",
"&  c #180F0D",
"*  c #0F110C",
"=  c #14110E",
"-  c #1A110E",
";  c #120F10",
":  c #131112",
">  c #1C1511",
",  c #1D1813",
"<  c #221713",
"1  c #251A16",
"2  c #2A1E19",
"3  c #2B1C17",
"4  c #023C02",
"5  c #003500",
"6  c #2D201B",
"7  c #33231D",
"8  c #372720",
"9  c #3D2722",
"0  c #352B22",
"q  c #3B2A23",
"w  c #7D041B",
"e  c #7C091C",
"r  c #402D26",
"t  c #423028",
"y  c #034303",
"u  c #0B4409",
"i  c #000F41",
"p  c #021140",
"a  c #021948",
"s  c #081B48",
"d  c #101C46",
"f  c #13254E",
"g  c #83061D",
"h  c #840B1E",
"j  c #AF0016",
"k  c #AF011C",
"l  c #B3001C",
"z  c #B40523",
"x  c #B90324",
"c  c #B70A27",
"v  c #8A1654",
"b  c #8B1B56",
"n  c #8F1C5A",
"m  c #8B1458",
"M  c #911D5B",
"N  c #8F205C",
"B  c #93235E",
"V  c #9A1F61",
"C  c #952261",
"Z  c #0CCC08",
"A  c #14C90E",
"S  c #16D20F",
"D  c #1ACC12",
"F  c #21C917",
"G  c #27CC1B",
"H  c #23D118",
"J  c #BD8973",
"K  c #D7AD48",
"L  c #DAAD48",
"P  c #DDB046",
"I  c #DEB24C",
"U  c #E5B74C",
"Y  c #E3BA4C",
"T  c #E9BB49",
"R  c #EABC50",
"E  c #C28E76",
"W  c #C68F79",
"Q  c #C69278",
"!  c #CC957C",
"~  c #EDC34F",
"^  c #F2C250",
"/  c #B24C8B",
"(  c #B6518F",
")  c #BB4E92",
"_  c #BB5393",
"`  c #C05697",
"'  c #C6569A",
"]  c #D57CC1",
"[  c #DA7EC6",
"{  c #DD7DCB",
"}  c #0995CF",
"|  c #0391CD",
" . c #1798CD",
".. c #1194CB",
"X. c #0092D2",
"o. c #0995D0",
"O. c #0399D6",
"+. c #119CD3",
"@. c #D1A28E",
"#. c #D4A390",
"$. c #D7AB93",
"%. c #DBAB96",
"&. c #DFAC98",
"*. c #E4B49C",
"=. c #E9B59F",
"-. c #E7C1A6",
";. c #EBC2A7",
":. c #ECCAA7",
">. c #ECC5AB",
",. c #EDCAAC",
"<. c #F0C5AC",
"1. c #F2CAAD",
"2. c #FACBAC",
"3. c #F3CAB0",
"4. c #F9CCB2",
"5. c #F9C7B4",
"6. c #F3D1B2",
"7. c #FAD0B3",
"8. c #FCD7B8",
"9. c #FED8B9",
"0. c #DA80C6",
"q. c #DE81CA",
"w. c #E184CD",
"e. c #E685D1",
"r. c #EF8AD9",
"t. c #E989D5",
"y. c #EEA5E0",
"u. c #F3A7E5",
"i. c #F4A8E5",
"p. c #F9ADE7",
"a. c #F7A7E9",
"s. c #F7ABE8",
"d. c #FBAEED",
"f. c #FCAEED",
"g. c #F9ACEA",
"h. c #FCB1EE",
"j. c #FBB0ED",
"k. c #FFB2F3",
"l. c #FFB2F2",
"z. c #FFB1F1",
"x. c #FFB1F4",
"c. c #FFB5F5",
"v. c #FFB3F3",
"b. c #FFB9FC",
"n. c #FFB9FC",
"m. c #DDCFC4",
"M. c #DED3C5",
"N. c #E2D6C9",
"B. c #E2D2C9",
"V. c #E3DACA",
"C. c #EBDDD1",
"Z. c #E5E0CC",
"A. c #ECE3D2",
/* pixels */
"                        $ $ $ $                                                 $ $ $ $                                         ",
"                        $ $ % $                                                 $ $ $ $                                         ",
"                        . o o .                                                 o . . o                                         ",
"                        : : : :                                                 : : : :                                         ",
"                $ $ . : y.f.f.y.: . $ $ $ $ $ $ $ $ $ $ $ $ $ $ $ $ $ $ $ $ o : y.f.f.y.; o $ $                                 ",
"                $ $ o : d.n.n.f.: . $ $ $ * $ * * $ $ $ % $ $ $ * $ $ $ $ $ o : f.n.n.f.: o % $                                 ",
"                $ $ o : i.x.x.i.$ . o o . o . . o o . . o . o . o o o . o o . @ i.k.x.u.: o $ $                                 ",
"                $ $ . : i.v.v.i.: @ ; : : : : = : : : : : : : : : ; : : : : O : u.k.k.i.: . $ $                                 ",
"                $ $ o : m.C.V.B.[ [ [ [ i.i.u.u.i.u.i.u.u.u.i.i.u.i.i.i.q.[ [ [ B.V.C.B.: o $ $                                 ",
"                $ % o : M.A.V.N.e.e.w.e.k.v.k.k.k.k.k.k.k.k.k.k.k.k.x.k.e.e.w.e.V.V.A.M.: o $ $                                 ",
"                $ $ + : M.A.Z.V.q.[ [ [ d.f.d.d.d.p.i.d.d.p.s.s.d.i.d.s.[ [ [ q.V.Z.A.M.: o $ $                                 ",
"                $ $ o : M.C.V.B.w.{ w.w.i.p.d.a.d.i.d.p.d.a.d.s.d.p.d.d.w.w.{ w.B.N.C.M.: + $ $                                 ",
"                $ $ # % ( ` ( _ s.p.a.d.d.a.d.a.d.p.d.s.p.f.d.d.s.d.g.g.g.a.d.i._ ( ` ( % o $ $                                 ",
"                $ $ # ; / ) / _ d.j.p.j.p.p.d.p.a.d.s.d.p.a.a.d.s.s.g.g.f.p.j.d.) / ) / $ O $ $                                 ",
"                $ $ # ; / _ / / d.j.d.s.d.d.d.d.p.p.s.d.s.p.p.d.d.s.s.g.p.p.k.p.( / ) / : # $ $                                 ",
"                $ $ # : / ` ) _ a.p.s.d.p.i.d.a.f.p.a.s.d.s.d.a.s.d.p.g.f.a.f.a._ ( ` ( : # $ $                                 ",
"                $ $ o : u.f.i.s.d.s.p.d.w.w.[ w.s.d.p.a.d.p.d.s.d.a.a.f.s.d.d.s.d.i.j.u.; o $ $                                 ",
"                $ % o : s.v.j.d.s.d.p.s.{ [ [ q.s.d.d.s.s.d.d.f.p.d.d.p.p.s.s.d.d.k.v.s.: o $ $                                 ",
"                o o . $ i.x.d.d.p.d.j.d.{ [ { { p.j.j.j.d.p.p.a.d.d.p.p.g.g.d.p.d.s.x.i.$ . o o                                 ",
"                ; ; + > i.v.s.d.a.d.p.s.w.q.q.w.s.d.s.a.s.a.p.f.p.s.d.a.g.g.a.d.d.a.x.i.: o : ;                                 ",
"        : $ o : ] w.[ [ p.p.j.a.q.q.q.q.<.1.1.,.q.q.q.w.d.f.p.s.q.w.{ w.d.d.p.i.p.d.p.s.0.] w.] : o $ $                         ",
"        $ $ # ; w.r.w.e.d.d.d.i.q.{ { q.1.1.1.1.[ { [ { s.p.f.s.q.[ [ [ a.d.p.d.d.s.j.a.e.e.r.w.: o $ $                         ",
"        $ $ o : w.r.w.e.s.d.d.d.{ { { { 2.7.7.7.q.{ { q.d.d.d.p.e.w.e.e.a.d.d.a.d.a.d.p.e.e.r.q.; o % $                         ",
"        $ $ o ; ] w.[ [ s.p.d.i.q.q.q.q.>.:.:.:.q.q.q.w.a.p.d.s.[ [ [ q.p.d.p.p.d.d.p.s.{ ] e.] : o $ $                         ",
"                : ; @ > i.k.a.p.1.,.2.>.f s s f >.7.1.<.q.{ e.q.u 4 4 u ,.4.1.3.s.a.v.i.: O ; :                                 ",
"                o o . $ i.k.d.d.1.1.7.,.s i i s >.7.1.1.q.{ w.[ 4 4 5 y :.4.:.1.d.d.k.i.$ . o o                                 ",
"                o o . @ i.k.a.p.1.:.7.>.d p p d :.7.1.1.{ { e.] 4 5 5 4 >.7.1.1.d.i.v.i.O . o o                                 ",
"                : : @ : u.k.d.p.<.1.7.>.f a a f >.7.1.1.w.q.e.0.u y y y ,.4.1.<.p.d.k.i.: # : :                                 ",
"        $ $ o ; ] w.[ 0.i.j.d.d.1.1.2.>.} | | ..>.2.1.,.<.<.5.>.F A A F ,.5.1.>.d.i.d.a.{ ] w.] : o $ $                         ",
"        $ $ # ; w.r.e.e.p.d.a.p.1.1.2.,.+.O.O.+.,.2.1.3.1.3.4.:.H S S H :.4.1.1.s.d.d.p.e.e.r.q.: # $ $                         ",
"        $ $ o : q.t.w.w.d.d.d.d.1.1.2.,.} X.X.o.>.2.3.<.1.1.5.,.D Z Z D :.4.:.1.p.d.d.d.w.q.t.q.; o $ $                         ",
"        $ ; o : ] e.[ { s.d.a.p.>.1.2.>. .} o. .,.2.,.1.1.1.4.,.G D D G >.5.1.<.d.a.d.i.q.q.e.[ ; o ; $                         ",
"        $ $ $ $ N C n C q.e.q.q.a.d.d.p.>.,.,.,.1.1.1.1.1.<.1.1.,.:.:.>.p.g.d.i.q.q.e.q.B n V n $ # $ $                         ",
"        $ $ # ; b M v n 0.q.{ q.g.g.g.d.2.2.2.2.1.1.<.1.,.1.1.1.5.4.4.5.d.g.d.g.q.q.q.{ n v M b $ $ $ $                         ",
"        $ $ $ $ M C n C q.e.q.q.h.k.k.j.3.3.1.1.3.7.4.7.4.7.4.4.1.1.1.1.j.x.x.z.q.q.e.q.C n C B : # $ $                         ",
"        $ $ # ; n M b N 0.q.{ q.i.a.a.i.,.1.>.1.>.>.:.>.>.>.>.:.<.1.1.1.s.a.i.i.q.q.q.{ N b M b $ $ $ $                         ",
"                % $ $ : ( _ _ _ C B M B E Q ! J < = - > > > - > J ! Q E B M M C ( _ _ ( : # ; $         $ $ $ $ $ $ $ $         ",
"                # O o * / _ _ ( b v v b J E W J % X O O O O X & J Q E J n v v b ( _ _ ( $ o O $         $ $ $ $ $ $ : $         ",
"                $ $ # $ _ ' ` _ n v m M W ! ! E % X O O O O . % E ! ! W n m v n _ _ ' _ : # $ $         o # . . $ $ $ $         ",
"                $ $ # : / _ ( / B n M B J E W J < & > < > - & < J Q E J B n M B / ( _ ( $ o $ $         : : : : $ $ $ $         ",
"                        ; ; # : #.&.%.#.r q 8 r ;.1.>.>.>.:.1.;.r 8 8 r #.%.&.#.: # ; ;         $ $ . : y.f.f.y.: o $ $         ",
"                        # # . O $.*.*.$.8 2 2 8 1.9.7.4.7.4.9.3.q 2 2 q $.*.*.$.* . # #         $ * . : f.n.n.j.: . * $         ",
"                        $ $ o : %.=.=.%.q 7 8 q 1.9.6.6.7.6.8.1.q 7 8 q %.=.=.%.% o $ $         # # . * i.v.v.i.: . $ $         ",
"                        $ $ + : @.%.%.@.q 7 8 r >.1.<.<.>.<.1.;.q 7 8 q @.%.%.@.: + $ $         $ : @ : u.v.k.u.: . $ $         ",
"                $ $ $ $ 7 q q q > - > - e g e e z x z z z z z c h e h e > > - > 8 q q q $ @ # ; / _ / ( q.q.e.0.; # $ $         ",
"                $ $ $ $ r q r 7 $ O O % w g g g l l l l l l l j g w g w % @ O O q q q q $ $ # : _ ' _ _ { q.e.[ ; # ; $         ",
"                o . . o q q r q = % = - w g e g l l l l l l l l g e g w & * % = q q q q o . . @ _ ' _ ` e.t.r.w.: o $ $         ",
"                : : : > 7 q q 7 - & ; - e g e w z z c x z z x z w e g e & & - - q q q q : : O : ( _ / ( ] { w.] ; o $ $         ",
"        $ $ + : -.3.1.-.2 - , < e w w e 9 q 7 q >.1.>.<.<.<.1.;.r 7 q 9 e g w e < , - 2 ;.1.3.;.: + $ ; : ; : ;                 ",
"        $ $ + : 1.9.9.1.1 - , < w g g h 8 0 8 q 3.8.6.7.6.6.8.1.q 6 0 q w g h w < , - 1 3.9.9.1.* . # # o # o o                 ",
"        $ $ # : 3.9.9.7.3 - , < w w w w 7 8 2 q 1.8.6.6.6.6.8.1.q 3 0 7 w w w w < , - 1 1.9.9.3.: . $ $ $ $ $ $                 ",
"        $ $ o : ;.1.3.;.1 - > < e h h e r q 8 q ;.1.<.>.<.<.3.;.t 8 q q e g h e < , - 1 ;.3.3.-.; o $ $ $ $ $ $                 ",
"                : : : : $ $ + = P U P I >.,.1.;.c l z z z z l c ;.3.,.;.I P U L - + $ $ ; : : ; $ $ $ $                         ",
"                . . + + $ $ o = I ~ T Y 3.7.9.3.z j l l l l j z 1.9.7.7.Y Y ^ Y = o $ $ o + o o $ $ $ $                         ",
"                $ $ $ $ $ $ + : U ^ T R 7.7.8.3.x l x x x x l x 1.8.7.3.R T ~ U : + $ $ $ $ $ ; $ $ $ $                         ",
"                $ $ $ $ $ $ + * K U P I >.,.1.;.z k l z l z j z >.3.>.,.I L U K = + $ $ $ $ $ $ $ $ $ ;                         ",
"                                % - * : q q q q q q q q < < < < 6 6 6 6 : $ : :                                                 ",
"                                + + + + 7 8 7 7 8 0 q q , , , , < < , , # o # +                                                 ",
"                                $ $ $ $ q q q q q q q 7 < < < < 6 6 2 6 $ $ $ $                                                 ",
"                                $ $ $ $ q q q q q q q q < < > < 2 2 1 2 $ $ $ $                                                 ",
"                                $ $ $ $ 2 7 6 6 6 6 6 6 - = = = < < < < $ $ $ $                                                 ",
"                                $ ; $ $ 2 2 6 6 2 6 6 2 = - & & < , < < $ $ $ $                                                 ",
"                                $ $ $ $ 6 7 6 2 2 6 7 2 & % - & < < < < $ $ $ $                                                 ",
"                                $ $ $ $ 2 6 6 6 6 6 6 6 - & & : < < < < $ $ $ $                                                 "
};
