/* XPM */
static char *result[] = {
/* columns rows colors chars-per-pixel */
"64 64 222 2 ",
"   c #020503",
".  c #0B0705",
"X  c #040805",
"o  c #04050A",
"O  c #060A0A",
"+  c #090808",
"@  c #0C0C0D",
"#  c #130E0C",
"$  c #1A0C0C",
"%  c #0F100C",
"&  c #14110F",
"*  c #1A110E",
"=  c #060810",
"-  c #0E0E12",
";  c #0F0B1D",
":  c #150E13",
">  c #1D0E16",
",  c #100B1F",
"<  c #0F1013",
"1  c #171413",
"2  c #1D1511",
"3  c #11121A",
"4  c #1E131B",
"5  c #250D0E",
"6  c #280E14",
"7  c #221612",
"8  c #2B1614",
"9  c #261B16",
"0  c #281B17",
"q  c #23151D",
"w  c #2B1E19",
"e  c #381A19",
"r  c #003400",
"t  c #2A2317",
"y  c #2C221C",
"u  c #32241E",
"i  c #3C211E",
"p  c #110D21",
"a  c #151226",
"s  c #000C3E",
"d  c #1A1E33",
"f  c #1C1F38",
"g  c #251923",
"h  c #261C24",
"j  c #2A1D26",
"k  c #291E28",
"l  c #341A29",
"z  c #1C2036",
"x  c #1E233C",
"c  c #2B2524",
"v  c #2A2827",
"b  c #2D222B",
"n  c #352620",
"m  c #342A22",
"M  c #3B2A23",
"N  c #3C2C2B",
"B  c #3F2938",
"V  c #6A0A1A",
"C  c #710519",
"Z  c #79081B",
"A  c #7B1D1F",
"S  c #462522",
"D  c #45332A",
"F  c #4A372E",
"G  c #52332D",
"H  c #442F3F",
"J  c #4E3A30",
"K  c #49303F",
"L  c #593731",
"P  c #513D34",
"I  c #144811",
"U  c #225719",
"Y  c #35572D",
"T  c #5E443A",
"R  c #634A3F",
"E  c #002657",
"W  c #212742",
"Q  c #222844",
"!  c #242E51",
"~  c #6D1946",
"^  c #77184A",
"/  c #2C4366",
"(  c #674E42",
")  c #444863",
"_  c #85041C",
"`  c #9E0118",
"'  c #A80219",
"]  c #B2001A",
"[  c #8B1A21",
"{  c #901F23",
"}  c #B30D27",
"|  c #B21B30",
" . c #BB1C33",
".. c #822224",
"X. c #C11D34",
"o. c #881754",
"O. c #901B59",
"+. c #87265D",
"@. c #93265B",
"#. c #BF3241",
"$. c #992966",
"%. c #8B3367",
"&. c #9C3667",
"*. c #A2326F",
"=. c #A33975",
"-. c #924473",
";. c #9E447B",
":. c #AA7967",
">. c #B77A6E",
",. c #23B919",
"<. c #0DCF09",
"1. c #31CB22",
"2. c #3BD029",
"3. c #53CA3C",
"4. c #B1883B",
"5. c #B3836D",
"6. c #A98272",
"7. c #B98479",
"8. c #CE9E4B",
"9. c #CAA346",
"0. c #DBA346",
"q. c #E8BD51",
"w. c #C28A77",
"e. c #CB967C",
"r. c #F2C550",
"t. c #A64B84",
"y. c #AA4B86",
"u. c #B24989",
"i. c #B1518C",
"p. c #BB5293",
"a. c #BC5997",
"s. c #A86399",
"d. c #BC6BAA",
"f. c #BD75AC",
"g. c #C4589B",
"h. c #C568A6",
"j. c #C86EB1",
"k. c #C677B5",
"l. c #C976B6",
"z. c #D373BB",
"x. c #D779C1",
"c. c #DA7CC5",
"v. c #DB7BCA",
"b. c #E27FCA",
"n. c #0081BD",
"m. c #298EBA",
"M. c #0195D5",
"N. c #229ACA",
"B. c #2BA1CF",
"V. c #47A2C5",
"C. c #BA9884",
"Z. c #BB82B0",
"A. c #C39A86",
"S. c #CC9B87",
"D. c #D09A82",
"F. c #D29B8B",
"G. c #D69B90",
"H. c #D4AF8E",
"J. c #D2AF97",
"K. c #CFB498",
"L. c #D1B596",
"P. c #D5B39B",
"I. c #D9B59C",
"U. c #DBB89D",
"Y. c #E7AD9A",
"T. c #E8AC9A",
"R. c #E4B69D",
"E. c #EDB29E",
"W. c #C281AA",
"Q. c #CBB4AC",
"!. c #D2B8A5",
"~. c #EABBA7",
"^. c #EDBAB4",
"/. c #F4BEB9",
"(. c #D3C997",
"). c #D5C3AA",
"_. c #D0C2B0",
"`. c #EDC7A8",
"'. c #EEC1AE",
"]. c #F1CAAC",
"[. c #F8CAA9",
"{. c #EEC2B3",
"}. c #F2C5B3",
"|. c #F8C6B7",
" X c #FACCB3",
".X c #F4D2B3",
"XX c #FBD1B3",
"oX c #FEDABA",
"OX c #DC8AC4",
"+X c #DE83CC",
"@X c #D794CA",
"#X c #D897CB",
"$X c #DF9BD3",
"%X c #E184CE",
"&X c #E289C8",
"*X c #E28DCB",
"=X c #E684D1",
"-X c #E48AD2",
";X c #E98AD5",
":X c #F28CDC",
">X c #EB9CD3",
",X c #EA98D7",
"<X c #DDBBC3",
"1X c #F3A7DE",
"2X c #F2ABDC",
"3X c #F09FE0",
"4X c #F4A5E4",
"5X c #F6ABE5",
"6X c #F8ACE6",
"7X c #F7A7E8",
"8X c #F7AAE9",
"9X c #F9ACEA",
"0X c #F9B1E3",
"qX c #FCB3EE",
"wX c #FFB2F4",
"eX c #FFBAFD",
"rX c #DEC4C5",
"tX c #E4CDC9",
"yX c #E3D6CB",
"uX c #EFD9D7",
"iX c #E5E1CC",
"pX c #EDE5D3",
/* pixels */
"p p p , , p p p p , , , @ @ @ @ , , , , , p , a x W W W W W W W W W Q W W W Q x - @ @ - ; , , p p , p p p , p p p , , p p p , p ",
"p , , p p , , , , , , , @ @ # @ , , , , , p p p x W W W W W W W x W Q x x Q x x - @ @ - p , , , , p , , , p p , p p p , , p , p ",
"p , p p , , , , , , p ,         ; , p p , , , p x W W W W W W W Q W W Q Q x Q x O   X O , p p p p , p p , p p , , p p p p p p , ",
"p p p , , , , , , , , , b b b b , ; ; ; , , , , f x x x x z x x x x x x x x x x b b v b p ; ; ; , p , , p p , p p , , p , , p p ",
", p p p , , , , - @   b Z.$X$XZ.k X - @ @ @ @ - - - - - < < < < < - - - < < O v Z.$X$XZ.k   @ - ; p , p , p , p , p p p p p , p ",
"p , , p p , , , - @   b $XeXeX$Xk   @ @ @ @ @ @ @ @ + @ @ @ + @ % @ @ @ % %   b $XeXeX$Xb   @ @ ; , , p , p p p p p , , , p , p ",
"p p , p p , p , @ @   b #XwXwX@Xc     X         X                         X   g #XwXwX@Xb   @ - ; p , , p p , , p , , p p p p p ",
", p p , , , p , @ @   v #XqXqX#XH 4 h j b b b b b b b b b b b b b b b b j j 4 H #XqXqX@Xb   @ @ ; p , p p , p p , p p p , , p , ",
", p p p p p ; p - @   v Q.uXyXrXW.j.f.k.@X@X@X@X#X@X#X#X@X#X#X@X@X@X#X@Xk.f.d.k.tXyXuXQ.v   @ @ ; , p p p p p p p p , p p p p , ",
"p p , p p p p p - @   v Q.pXyXtX-X=X=X;X9XwXwXwXwXwXwXwXwXwXwXwXwXwXwX9X;X%X=X-XtXyXpXQ.v o @ - ; p p p p p p p p , p p , , , p ",
"p ; p , ; , , p - @   v _.pXiXrXOXv.+X+X7X9X9X9X8X7X5X9X9X7X7X9X9X7X9X4X+X+Xv.OXyXiXpX_.v   @ @ ; , p p , , p p , , , p , p , p ",
"p p p p p p p a - @   c Q.tXrXrX*X+X+X-X4X8X8X9X9X5X9X9X9X7X9X7X9X6X9X7X-X%X=X*X<XrXrXQ.c   @ - p p a p p p a p a p a p p , , p ",
"p , , p x x x z < @ + q t.d.a.d.>X7X4X7X9X5X9X7X9X9X9X9X5X9X9X9X5X9X9X9X4X4X7X,Xd.a.h.t.4 X @ @ d x x x x x x x x x x x p , p , ",
"p p p p x Q Q x < @ X q t.y.u.a.4XqX5X9X9X7X9X9X7X9X9X9X9X7X9X9X9X7X9X7X9X9X9X1Xa.t.p.=.q X @ @ f W W Q Q Q Q Q Q Q Q x a , p p ",
"p p , p x Q Q z < @ X q ;.p.y.a.3XqX9X5X9X9XqX9X9X5X4X9X5X5X5X9X9X9X5X9X5X5XwX4Xa.u.p.;.q X % - f Q W W x W Q x x Q W x p p , , ",
"p p , a x W Q z & @ X g t.g.g.h.3X9X5X9X4X4X4X4X9X9X4X9X9X9X9X9X5X9X5X9X9X7XqX,Xh.a.h.y.h X @ @ f W W W Q W Q W Q W W x a p p a ",
"p p , p x Q Q f < @   b OX4X,X3X9X9X5X4X-X+X+X-X7X9X6X7X9X6X9X9X9X9X7X9X8X9X9X5X4X,X4XOXb   @ - f Q W W W W W W W W W x x x x x ",
"p , , a x Q Q x - @ X b #XwX9XqX9X9X9X4X+X+X+X+X4X9X9X9X5X9X9X9X9X9X9X5X5X8X8X9XqXqXwX#Xb X @ - x W W W W W W W W W W W Q W Q Q ",
"p p , p x W Q f O     h @XwX9X9X9X9XqX7X+Xv.c.+X4X9XqX9X9X5X6X7X9X9X9X5X9X9X9X9X8X8XwX@Xh     O x Q W W W W W W W W W W W W W W ",
"p , , p f x x x j j 4 K #XwX9X7X4X4X4X1X*X*XOXOX3X7X7X7X9X7X9X9X4X4X4X4X9X9X7X9X9X8XwX#XH 4 j j f x f f W W W W W W W W W W W W ",
"p p , p 3 - O k s.l.d.k.4X9X6X4X-X%X%X%X^.'.'.^.&X&X%X-X7X9X6X4X*X+X+X-X7X9X7X8X9X8X9X3Xk.d.l.s.k @ & 3 x W W W W W W W W W W W ",
", , , p - @   j k.:X=X;X7X9X9X4X%Xc.v.OX^.].].^.OXv.c.+X4X9X9X4X%X+Xc.+X4X9X9X9X9X9X9X4X;X=X:Xl.j   @ < x W W W W W W W W W W W ",
"p , , p - @   k l.:X%X-X7X9XqX7X%Xv.v.&X}.XXXX XOXv.v.%X7X9X9X6X;X=X-X-X4X8X9X7X9X9X9X4X;X;X:Xk.j   @ < z W W W W W W W W W W W ",
"p , , p < - O k s.k.j.k.1X9X9X4X*XOX%XOXP.K.K.P.OX&X&X*X1X4X6X3Xk.f.f.k.2X0X0X0X9X9X9X1Xl.d.l.s.k O @ 3 x Q W W W W Q W x x x x ",
", p , , , p , a k j q K #XwX7X2X^.'.}.P.) ! ! ) P.|.^.^.*X+X;Xk.Y I I Y K. X}.}.0X7XwX#XH q j j d x f W W W W W W W W x a p p a ",
"p , p , , , , 3 O X   h @XwX9X6X}.]. XP.! s s ! P. X].^.&Xc.%Xf.U r I I L..X`.}.0X7XwX@Xh     O f W W W W W W W W W W x p p , p ",
"p p , p , , p p O     g @XwX7X0X}.`. X!.! s s ! K.XX].'.&Xc.=Xf.v r r U K.XX].}.0X7XwX@Xw     X f Q W W W W W W W W Q x p , p p ",
", , , , ; , ; p k j 4 H #XwX9X5X{.`. XP./ E E / P.XX].'.&X&X-XW.U I I U L.XX].{.0X9XwX#XH a j j d z f f f x x W x x x x p , p p ",
"p , p , @ @ X g s.l.d.l.3XqX9X0X}.]. X!.m.M.n.m.Q.XX].].^.^./.P.,.,.,.1.(. X`.{.2X7X9X3Xl.d.l.s.g O @ - p p p p a p p p p , p p ",
", p , ; - @ X j l.:X=X-X7X9X7X0X}.].[._.B.M.M.B.).[.].].].]. X(.2.<.<.2.(. X].{.0X9XqX7X=X=X:Xl.k   @ - ; , p p p p p , p p p p ",
", , , ; @ @   j k.=Xb.=X7X9X9X0X}.].[._.N.M.M.N._.[.].'.].]. X(.1.<.<.1.(.|.`.}.0X9XwX7X-X+X;Xj.k   @ @ ; , p , p p p p , p , , ",
"a p a p - @ X h d.x.z.x.3X7X7X1X/.}.|._.V.N.m.V.). X].].].]. X(.3.1.1.3.(.|.{.}.4X4X7X,Xx.z.x.d.j   @ @ , p , p p p p p p p a p ",
"x x W d @ @ @ > +.*.$.=.c.-X%X%X1X0X0X0X!._._.).`.].].].'.`.].`.L.(.(.(.2X6X0X1X*X%X-Xx.=.$.*.O.,   @ @ ; p , p , p , p x x x x ",
"W W Q f @ @ X > ^ O.o.$.l.+Xv.+X7X9X9X0X|.[.[.].].].'.`.].].].].}. X|.|.6X9X9X4X%Xv.%Xz.$.o.O.^ > @ @ - ; p , , , , , a x Q W Q ",
"W Q Q f - @ @ > ^ $.O.*.x.=Xv.%X6XwX9X0XtX X`.]..XXXXXXXXXXXXX X].].].}.6XwXwX9X*Xb.=Xx.$.O.$.o.4 O @ @ ; , p p p p , p x W W Q ",
"x x f d - @ O > ^ o.^ +.j.c.x.c.-X,X,X>X~.`.`.~.P.J.J.J.J.J.J.J.~.`.`.~.>X,X,X,Xv.x.c.j.+.^ o.~ > @ @ @ ; ; ; ; ; ; ; p f W x x ",
"p p p p ; ; ; , > > > l t.a.a.p.=.$.$.=.w.e.D.5.F y n m m m u F 5.D.e.w.=.$.&.*.i.a.g.y.l # > 4 , ; ; ; - @ @ - - @ @ - p p a p ",
"p p p p p p p ; o o   4 t.p.p.u.@.o.o.@.>.w.e.:.9   + . . .   0 :.w.w.>.@.o.o.@.u.p.p.;.4   + @ p p p ; @ @ @ @ @ @ @ @ , , p p ",
"p p p p , , ; ; @ @   q t.g.a.i.@.o.o.@.>.e.e.:.9   . . . +   9 :.e.e.w.@.o.o.O.i.g.g.y.g X @ - p , p ; o       + @ @ - ; p p p ",
"p p p p p ; p ; - @ o g %.t.t.=.&.&.@.&.:.5.>.:.D u m M m u u D :.5.5.:.&.@.$.&.;.;.y.%.g O - 3 3 ; ; p b b b h : @ @ @ ; p ; p ",
"p p p p p p p , ; ; ; , q q > N >.G.G.7.T D D T A.I.J.J.J.J.I.A.T D D T 7.G.G.7.N , q h z z x d - @   k Z.$X$XZ.h   @ @ ; p p p ",
"p p p p p p p p , p p ; O X   9 A.~.R.A.F 9 0 J U.oXXXXXXXXXoXU.P 0 8 F A.R.R.A.9   X @ x Q Q z - @   b $XeXeX$Xb   @ @ ; p p p ",
", p p p , p ; , p p ; ; @ @   y A.~.~.S.J e u J U.oX.X.X.X.XoXI.P t u J S.R.~.A.w   @ - x W W d O     h #XwXwX@Xb   @ @ ; p ; , ",
"p p p p p a p p ; ; ; ; : & O c :.A.A.:.G e M L F.E.Y.Y.Y.Y.E.S.L i i G 6.A.A.:.c @ & < d d f d 4 g > B @XqX9X@Xb   @ @ p p a p ",
"x x x x x f W d - @ @ : 0 m n u u u n i V Z V A |  . . . . . .| _ V Z V n n u u u u n u : @ O g %.y.;.y.c.%X;Xk.b   @ - f x x x ",
"Q W W W Q Q Q f @ @ @ % m M S u @ + + $ C _ _ _ ' ] ] ] ] ] ] ' _ _ _ C $ X . # u M M n # O   g y.g.a.a.x.v.=Xj.j   @ < x Q W Q ",
"W W W W Q W Q d o     @ u M M u & # # 5 C _ Z _ ] ] ] ] ] ] ] ' _ Z _ C 5 # # & u S M u @     > t.g.a.g.v.;X:Xl.j X @ - z W W W ",
"W W W W x x f f y c c m u n u u 5 5 > 8 V Z C _ |  . . . . .X.| _ V A V 6 5 5 5 u n m m c c 0 N -.t.;.t.d.k.l.s.h O - 3 x Q W W ",
"W W W f 3 - O c C.I.I.C.N * 7 8 V C C V S S e G F.R.Y.T.T.Y.E.S.L e S S V C C V 0 7 * N C.I.I.C.N > 4 q h j j h z x x x x Q W W ",
"W W Q x - @ o c P.oXoXR.M * 2 8 C _ _ Z S u y T U.oX.X.X.X.XoXU.J y m S Z _ _ C 8 2 # D U.oXoXP.c   X X X   X O x W W W Q W W W ",
"W W W x < @   v I.oXoX!.D # 2 8 C Z Z C e t 9 F U.oX.X.X.X.XoXI.J 9 y e C Z Z C 8 2 $ N U.oXoXP.c   @ @ @ @ @ - x W x W x W W W ",
"W W W x 3 - O c C.I.I.C.u # 2 0 A { [ ..L T F R F.E.Y.Y.T.T.E.F.( J J P [ [ { A 8 2 # m C.I.P.C.y X @ @ - - - 3 x W W W Q Q W W ",
"W W W x x x z x c c c c & @ o t 4.0.0.9.H.I.I.F.#. . . . . . .#.F.U.I.H.8.8.0.4.t + # & h c m c - @ @ - d z x x x Q x Q Q W W Q ",
"W W W W W W Q z o     o @ % X t 9.r.q.q.[.XXoX~. .' ] ] ] ] ' | E.oXXX[.q.q.r.9.t X @ @         @ @ @ @ f Q W W Q Q Q Q Q W Q x ",
"W W W W W W W x - @ @ @ @ @ X t 9.r.q.r.[.XXoXE.X.] ] } ] } ]  .R.oXXX[.r.r.r.9.t o @ @ @ @ @ # @ @ @ - d Q W W Q x Q x Q Q Q Q ",
"W W W W W W W x 3 @ - : @ @ o 9 4.9.4.8.H.L.U.D.| ` ' ' ' ` ' | F.I.L.H.9.4.9.4.9 o @ @ - @ @ # @ @ @ - d W x x Q Q Q Q x Q Q x ",
"Q Q W Q Q x Q x p p p , , ; ; , 9 t t y F P P J S S S S e 8 8 e D D D N y t t t , , , , , , , , ; , , , p p p a x Q x Q Q Q Q x ",
"x Q x Q Q Q Q x p ; , , p p p ; o o   @ 0 u t u u m M m * 2 2 2 2 2 2 1 X   O = p p , , , , p , , , , p p p p p x Q Q Q x Q Q Q ",
"Q Q Q Q Q W Q x a , p p , , p ; @ @ @ & u N i M M M i u 9 2 7 9 0 w 0 0 % @ % < p , , p , , , , , , , , p p , a x Q x Q Q Q Q x ",
"x f x x x f x f p , p p p ; p ; @ @ @ < u M M M i M i u 8 2 * 2 0 0 0 9 % O @ < p a p a , , , , p , p p p p p p x x x x x x x x ",
"a p p a p p a p p , p p p , p ; - @ @ % 0 u u w y u y t 2 & & * 7 7 7 7 @ @ @ - f x x f p , , p p , p p p , , p p a p a a a a p ",
"p p , p , ; p p ; p ; p p ; p ; @ @ @ @ 0 w w w t t w 0 * # $ & 7 2 7 2 & @ @ - x Q Q x a , p , , p p , p , p , , p , , , , , , ",
"p p p p , p , p p , p , p , p ; @ @ @ : 0 u u 0 w w u 0 * # & * 2 7 7 2 @ @ @ - x W Q x p p p p , p p , p , , , p p , p p , p p ",
"p , p p p p p p p p p p , , p ; @ @ @ # 9 w w w w w y 0 * $ # & 7 7 9 2 @ @ @ - f Q Q x p p , p p p , p , p p p p , p p , p p , "
};
