/* XPM */
static char *cc2ec0b785b0481694300e224da9987dNysKlPPGJohbviDf[] = {
/* columns rows colors chars-per-pixel */
"64 64 7 1 ",
"  c #110C20",
". c #3C222D",
"X c #743C36",
"o c #212742",
"O c #374266",
"+ c #5A6989",
"@ c #8C9CB5",
/* pixels */
"++++++++++++++++++++++++++++++++++++++++++++++++++++++++++++    ",
"++++++++++++++++++++++++++++++++++++++++++++++++++++++++++++    ",
"++++++++++++++++++++++++++++++++++++++++++++++++++++++++++++    ",
"++++++++++++++++++++++++++++++++++++++++++++++++++++++++++++    ",
"++++ooooOOOOooooooooooooooooooooOOOO++++ooooooooOOOOoooooooo    ",
"++++ooooOOOOooooooooooooooooooooOOOO++++ooooooooOOOOoooooooo    ",
"++++ooooOOOOooooooooooooooooooooOOOO++++ooooooooOOOOoooooooo    ",
"++++ooooOOOOooooooooooooooooooooOOOO++++ooooooooOOOOoooooooo    ",
"++++OOOOoooooooooooooooooooooooo++++ooooooooOOOOoooooooooooo    ",
"++++OOOOoooooooooooooooooooooooo++++ooooooooOOOOoooooooooooo    ",
"++++OOOOoooooooooooooooooooooooo++++ooooooooOOOOoooooooooooo    ",
"++++OOOOoooooooooooooooooooooooo++++ooooooooOOOOoooooooooooo    ",
"++++ooooooooooooooooOOOOooooooooXXXXooooooooooooooooooooOOOO    ",
"++++ooooooooooooooooOOOOooooooooXXXXooooooooooooooooooooOOOO    ",
"++++ooooooooooooooooOOOOooooooooXXXXooooooooooooooooooooOOOO    ",
"++++ooooooooooooooooOOOOooooooooXXXXooooooooooooooooooooOOOO    ",
"++++ooooooooooooOOOOooooooooOOOOooooooooooooooooooooOOOOoooo    ",
"++++ooooooooooooOOOOooooooooOOOOooooooooooooooooooooOOOOoooo    ",
"++++ooooooooooooOOOOooooooooOOOOooooooooooooooooooooOOOOoooo    ",
"++++ooooooooooooOOOOooooooooOOOOooooooooooooooooooooOOOOoooo    ",
"++++ooooooooOOOOooooooooXXXXooooooooooooooooooooOOOOoooooooo    ",
"++++ooooooooOOOOooooooooXXXXooooooooooooooooooooOOOOoooooooo    ",
"++++ooooooooOOOOooooooooXXXXooooooooooooooooooooOOOOoooooooo    ",
"++++ooooooooOOOOooooooooXXXXooooooooooooooooooooOOOOoooooooo    ",
"++++ooooOOOOooooooooooooOOOOooooooooooooooooOOOOoooooooooooo    ",
"++++ooooOOOOooooooooooooOOOOooooooooooooooooOOOOoooooooooooo    ",
"++++ooooOOOOooooooooooooOOOOooooooooooooooooOOOOoooooooooooo    ",
"++++ooooOOOOooooooooooooOOOOooooooooooooooooOOOOoooooooooooo    ",
"++++ooooooooooooooooooooooooooooooooooooOOOOoooooooooooooooo    ",
"++++ooooooooooooooooooooooooooooooooooooOOOOoooooooooooooooo    ",
"++++ooooooooooooooooooooooooooooooooooooOOOOoooooooooooooooo    ",
"++++ooooooooooooooooooooooooooooooooooooOOOOoooooooooooooooo    ",
"++++ooooooooooooooooooooooooooooooooOOOOoooooooooooooooooooo    ",
"++++ooooooooooooooooooooooooooooooooOOOOoooooooooooooooooooo    ",
"++++ooooooooooooooooooooooooooooooooOOOOoooooooooooooooooooo    ",
"++++ooooooooooooooooooooooooooooooooOOOOoooooooooooooooooooo    ",
"++++oooooooooooooooooooooooooooo++++oooooooooooooooooooooooo    ",
"++++oooooooooooooooooooooooooooo++++oooooooooooooooooooooooo    ",
"++++oooooooooooooooooooooooooooo++++oooooooooooooooooooooooo    ",
"++++oooooooooooooooooooooooooooo++++oooooooooooooooooooooooo    ",
"++++ooooooooooooooooooooOOOO++++oooooooooooooooooooooooooooo    ",
"++++ooooooooooooooooooooOOOO++++oooooooooooooooooooooooooooo    ",
"++++ooooooooooooooooooooOOOO++++oooooooooooooooooooooooooooo    ",
"++++ooooooooooooooooooooOOOO++++oooooooooooooooooooooooooooo    ",
"++++oooooooooooooooo++++++++oooooooooooooooooooooooooooooooo    ",
"++++oooooooooooooooo++++++++oooooooooooooooooooooooooooooooo    ",
"++++oooooooooooooooo++++++++oooooooooooooooooooooooooooooooo    ",
"++++oooooooooooooooo++++++++oooooooooooooooooooooooooooooooo    ",
"++++ooooooooooooOOOO@@@@oooooooooooooooooooooooooooo........    ",
"++++ooooooooooooOOOO@@@@oooooooooooooooooooooooooooo........    ",
"++++ooooooooooooOOOO@@@@oooooooooooooooooooooooooooo........    ",
"++++ooooooooooooOOOO@@@@oooooooooooooooooooooooooooo........    ",
"++++ooooooooOOOO@@@@oooooooooooooooooooooooo........oooooooo    ",
"++++ooooooooOOOO@@@@oooooooooooooooooooooooo........oooooooo    ",
"++++ooooooooOOOO@@@@oooooooooooooooooooooooo........oooooooo    ",
"++++ooooooooOOOO@@@@oooooooooooooooooooooooo........oooooooo    ",
"++++ooooooooOOOOoooooooooooooooooooo....XXXX....oooooooooooo    ",
"++++ooooooooOOOOoooooooooooooooooooo....XXXX....oooooooooooo    ",
"++++ooooooooOOOOoooooooooooooooooooo....XXXX....oooooooooooo    ",
"++++ooooooooOOOOoooooooooooooooooooo....XXXX....oooooooooooo    ",
"                                                                ",
"                                                                ",
"                                                                ",
"                                                                "
};
